<svg width="44" height="38" viewBox="0 0 44 38" fill="none" xmlns="http://www.w3.org/2000/svg">
<path d="M25.0834 0.25C20.1106 0.25 15.3414 2.22544 11.8251 5.74175C8.30881 9.25805 6.33337 14.0272 6.33337 19H0.083374L8.18754 27.1042L8.33337 27.3958L16.75 19H10.5C10.5 10.9375 17.0209 4.41667 25.0834 4.41667C33.1459 4.41667 39.6667 10.9375 39.6667 19C39.6667 27.0625 33.1459 33.5833 25.0834 33.5833C21.0625 33.5833 17.4167 31.9375 14.7917 29.2917L11.8334 32.25C13.5694 33.9962 15.6341 35.3813 17.9082 36.3253C20.1824 37.2693 22.6211 37.7535 25.0834 37.75C30.0562 37.75 34.8253 35.7746 38.3416 32.2582C41.8579 28.7419 43.8334 23.9728 43.8334 19C43.8334 14.0272 41.8579 9.25805 38.3416 5.74175C34.8253 2.22544 30.0562 0.25 25.0834 0.25ZM23 10.6667V21.0833L31.9167 26.375L33.4167 23.8542L26.125 19.5208V10.6667H23Z" fill="#4A4C4B"/>
</svg>
