<svg width="50" height="50" viewBox="0 0 50 50" fill="none" xmlns="http://www.w3.org/2000/svg">
<path fill-rule="evenodd" clip-rule="evenodd" d="M24.6604 45.8307L25 45.8334C24.5401 45.8333 24.0803 45.8183 23.6213 45.7885C23.0534 45.7513 22.4871 45.691 21.9241 45.6078C21.2699 45.5109 20.6208 45.3829 19.9789 45.2242C19.3461 45.0676 18.721 44.8812 18.1058 44.6656L18.1024 44.6643C17.0893 44.309 16.1054 43.8754 15.1595 43.3675C14.4882 43.0071 13.8372 42.61 13.2095 42.1782C12.5036 41.6928 11.8282 41.1645 11.1872 40.5962C10.9632 40.3977 10.7435 40.1944 10.5282 39.9865C6.60581 36.1978 4.16675 30.8838 4.16675 25C4.16675 13.4941 13.4942 4.16669 25 4.16669C27.7359 4.16667 30.445 4.70553 32.9726 5.7525C35.5003 6.79947 37.7969 8.33403 39.7315 10.2686C41.666 12.2031 43.2006 14.4998 44.2476 17.0274C45.2946 19.555 45.8335 22.2641 45.8335 25C45.8335 30.884 43.3942 36.1982 39.4717 39.9867C39.4716 39.987 39.4716 39.9874 39.4717 39.9879C38.485 40.9404 37.4071 41.7937 36.2536 42.5355L36.2375 42.5458C35.9759 42.7138 35.7105 42.8759 35.4416 43.0318L35.4131 43.0484C34.9426 43.3203 34.4616 43.5738 33.9713 43.8082C33.7794 43.8996 33.5862 43.9883 33.3917 44.0742C33.1889 44.1634 32.9847 44.2495 32.7792 44.3325C32.58 44.4125 32.3797 44.4896 32.1782 44.5638C31.9745 44.6383 31.7697 44.7098 31.5639 44.7783C31.3616 44.8452 31.1583 44.9092 30.9541 44.9701C30.7377 45.0344 30.5203 45.0953 30.302 45.1527C30.0895 45.2084 29.8762 45.2607 29.6622 45.3098C29.4486 45.3585 29.2342 45.4039 29.0192 45.446C28.1427 45.6173 27.2562 45.732 26.365 45.7893C26.1435 45.8037 25.9218 45.8145 25.7 45.8219L25.6957 45.822C25.3507 45.8333 25.0055 45.8362 24.6604 45.8307ZM27.0835 33.3334H22.9167C19.5981 33.3334 16.6957 35.2862 15.3614 38.1416L15.2105 38.4875L15.3411 38.5841C17.7157 40.2755 20.5527 41.36 23.6256 41.6108C23.7174 41.6183 23.8093 41.6251 23.9014 41.631L23.6383 41.6118C23.7278 41.6191 23.8176 41.6256 23.9075 41.6314L23.9014 41.631C23.9905 41.6369 24.0797 41.642 24.169 41.6464L23.9075 41.6314C24.0002 41.6375 24.0933 41.6427 24.1866 41.6472L24.169 41.6464C24.236 41.6496 24.303 41.6525 24.37 41.655L25 41.6667L25.2613 41.6647C25.3573 41.6633 25.4534 41.661 25.5494 41.6579L25.2857 41.6642C25.3746 41.6628 25.4633 41.6606 25.5518 41.6577L25.5494 41.6578C25.6386 41.6549 25.7278 41.6514 25.8167 41.6471L25.5518 41.6577C25.6436 41.6546 25.7354 41.651 25.8271 41.6465L25.8167 41.6471C25.9095 41.6425 26.0019 41.6373 26.0941 41.6314L25.8271 41.6465C25.9174 41.6421 26.0076 41.637 26.0976 41.6311L26.0942 41.6313C26.1844 41.6255 26.2745 41.6189 26.3643 41.6117L26.0975 41.6311C26.1893 41.6252 26.281 41.6184 26.3726 41.611L26.3643 41.6117C26.4515 41.6045 26.5386 41.5968 26.6254 41.5885L26.3726 41.611C26.4638 41.6036 26.5547 41.5954 26.6455 41.5865L26.6254 41.5885C29.5958 41.301 32.3379 40.2338 34.6449 38.5941L34.7875 38.4875L34.6389 38.142C33.363 35.4107 30.6519 33.5049 27.5139 33.3443L27.0835 33.3334ZM25 8.33339C15.7954 8.33339 8.33345 15.7953 8.33345 25C8.33345 28.975 9.72495 32.625 12.0474 35.4892C14.1986 31.7127 18.2603 29.1667 22.9167 29.1667H27.0835C31.74 29.1667 35.8018 31.7129 37.9526 35.489C40.2751 32.625 41.6667 28.975 41.6667 25C41.6667 15.7953 34.2048 8.33339 25 8.33339ZM25 10.4167C29.6025 10.4167 33.3335 14.1476 33.3335 18.75C33.3335 23.2129 29.8251 26.8564 25.416 27.0732L25 27.0834C20.3977 27.0834 16.6667 23.3524 16.6667 18.75C16.6667 14.2871 20.175 10.6435 24.5841 10.4268L25 10.4167ZM25 14.5834C22.6989 14.5834 20.8334 16.4488 20.8334 18.75C20.8334 21.0512 22.6989 22.9167 25 22.9167C27.3012 22.9167 29.1667 21.0512 29.1667 18.75C29.1667 16.4488 27.3012 14.5834 25 14.5834Z" fill="#4A4C4B"/>
</svg>
