<svg width="50" height="50" viewBox="0 0 50 50" fill="none" xmlns="http://www.w3.org/2000/svg">
<rect width="50" height="50" fill="white"/>
<path d="M33.3333 35.4167V39.5833C33.3333 40.6884 32.8943 41.7482 32.1129 42.5296C31.3315 43.311 30.2717 43.75 29.1667 43.75H10.4167C9.3116 43.75 8.25179 43.311 7.47039 42.5296C6.68899 41.7482 6.25 40.6884 6.25 39.5833V10.4167C6.25 9.3116 6.68899 8.25179 7.47039 7.47039C8.25179 6.68899 9.3116 6.25 10.4167 6.25H29.1667C30.2717 6.25 31.3315 6.68899 32.1129 7.47039C32.8943 8.25179 33.3333 9.3116 33.3333 10.4167V14.5833H29.1667V10.4167H10.4167V39.5833H29.1667V35.4167H33.3333ZM38.5417 13.5417L35.5958 16.4875L42.025 22.9167H20.8333V27.0833H42.025L35.5958 33.5125L38.5417 36.4583L50 25L38.5417 13.5417Z" fill="#4A4C4B"/>
</svg>
