<svg width="50" height="50" viewBox="0 0 50 50" fill="none" xmlns="http://www.w3.org/2000/svg">
<path d="M34.375 42.4688L30.3281 38.4219L28.125 40.625L34.375 46.875L46.875 34.375L44.6719 32.1719L34.375 42.4688Z" fill="#4A4C4B"/>
<path d="M39.0625 7.8125H34.375V6.25C34.3725 5.42196 34.0425 4.62854 33.457 4.04302C32.8715 3.45751 32.078 3.12747 31.25 3.125H18.75C17.922 3.12747 17.1285 3.45751 16.543 4.04302C15.9575 4.62854 15.6275 5.42196 15.625 6.25V7.8125H10.9375C10.1095 7.81497 9.31604 8.14501 8.73052 8.73052C8.14501 9.31604 7.81497 10.1095 7.8125 10.9375V43.75C7.81497 44.578 8.14501 45.3715 8.73052 45.957C9.31604 46.5425 10.1095 46.8725 10.9375 46.875H25V43.75H10.9375V10.9375H15.625V15.625H34.375V10.9375H39.0625V28.125H42.1875V10.9375C42.185 10.1095 41.855 9.31604 41.2695 8.73052C40.684 8.14501 39.8905 7.81497 39.0625 7.8125ZM31.25 12.5H18.75V6.25H31.25V12.5Z" fill="#4A4C4B"/>
</svg>
